<svg width="18" height="26" viewBox="0 0 18 26" fill="none" xmlns="http://www.w3.org/2000/svg">
<path d="M2.49467 0.808463C1.8366 0.305235 0.895188 0.430757 0.391959 1.08882C-0.111269 1.74689 0.0142533 2.68831 0.672321 3.19154L2.49467 0.808463ZM15.7502 12.8333L16.6613 14.0249C17.0325 13.7411 17.2502 13.3005 17.2502 12.8333C17.2502 12.3661 17.0325 11.9256 16.6613 11.6418L15.7502 12.8333ZM0.672321 22.4751C0.0142533 22.9784 -0.111269 23.9198 0.391959 24.5778C0.895188 25.2359 1.8366 25.3614 2.49467 24.8582L0.672321 22.4751ZM0.672321 3.19154L14.839 14.0249L16.6613 11.6418L2.49467 0.808463L0.672321 3.19154ZM14.839 11.6418L0.672321 22.4751L2.49467 24.8582L16.6613 14.0249L14.839 11.6418Z" fill="white"/>
</svg>
