<svg width="20" height="21" viewBox="0 0 20 21" fill="none" xmlns="http://www.w3.org/2000/svg">
<path d="M2.89933 20.8081C2.21777 20.8051 1.56517 20.5322 1.08429 20.0492C0.603416 19.5662 0.33342 18.9124 0.333374 18.2309V2.76546C0.333312 2.32597 0.445622 1.89377 0.659632 1.50991C0.873643 1.12606 1.18225 0.803293 1.55612 0.57229C1.93 0.341287 2.35673 0.209715 2.79578 0.190075C3.23482 0.170436 3.6716 0.26338 4.06461 0.460078L17.8423 8.20201C18.2669 8.4191 18.623 8.74969 18.871 9.15702C19.119 9.56436 19.2492 10.0325 19.2471 10.5094C19.2451 10.9863 19.1108 11.4532 18.8592 11.8584C18.6076 12.2635 18.2487 12.591 17.8222 12.8044L4.10111 20.5178C3.72862 20.7069 3.31708 20.8063 2.89933 20.8081Z" fill="#CDF5AD"/>
</svg>
